# xmcd
#
# Track frame offsets:
#	150
#	15066
#	30193
#	46508
#	60256
#	76447
#	92868
#	110956
#	126667
#	142911
#	158879
#	175928
#	190481
#	212677
#	225540
#	239429
#	254051
#	272060
#	293614
#	310252
#
# Disc length: 4379 seconds
#
# Revision: 0
# Processed by: cddbd v1.4PL0 Copyright (c) Steve Scherf et al.
# Submitted via: EasyCDDAExtractor 4.6.9.1
#
DISCID=10111914
DTITLE=Alabama - The American Farewell Tour
DYEAR=2003
DGENRE=Country
TTITLE0=When It All Goes South
TTITLE1=Love In The First Degree
TTITLE2=The Closer You Get
TTITLE3=High Cotton
TTITLE4=Sad Lookin' Moon
TTITLE5=Feels So Right
TTITLE6=Lady Down On Love
TTITLE7=Down Home
TTITLE8=Christmas In Dixie
TTITLE9=Give Me One More Shot
TTITLE10=Roll On (Eighteen Wheeler)
TTITLE11=Song Of The South
TTITLE12=The Fans
TTITLE13=I'm in A Hurry (And Don't Know Why)
TTITLE14=Tennessee River
TTITLE15=Old Flame
TTITLE16=Dixieland Delight
TTITLE17=Dancin', Shaggin' On The Boulevard
TTITLE18=Mountain Music
TTITLE19=My Home's in Alabama
EXTD=
EXTT0=
EXTT1=
EXTT2=
EXTT3=
EXTT4=
EXTT5=
EXTT6=
EXTT7=
EXTT8=
EXTT9=
EXTT10=
EXTT11=
EXTT12=
EXTT13=
EXTT14=
EXTT15=
EXTT16=
EXTT17=
EXTT18=
EXTT19=
PLAYORDER=
